<svg xmlns="http://www.w3.org/2000/svg" id="cloud-snow" enable-background="new 0 0 64 64" viewBox="0 0 64 64">
  <path fill="#2b2e63" d="M53.4,21.1c0.2-0.9,0.2-1.8,0.2-2.6c0-8.3-6.7-15-15-15c-4.7,0-9.1,2.2-11.9,5.9c-1.4-0.5-2.8-0.8-4.3-0.8c-6.4,0-11.7,5.2-11.7,11.7c0,0.3,0,0.6,0,0.9C4.8,21.7,0,26.9,0,33.1c0,6.7,5.5,12.2,12.2,12.2l8,0l9.8,0c0.1,0.3,0.1,0.5,0.2,0.8l-1.8,1l-3.6-1c-0.5-0.1-1,0.2-1.2,0.7c-0.1,0.5,0.2,1,0.7,1.2l1.8,0.5L25,49l-2.5-0.7c-0.5-0.1-1,0.2-1.2,0.7c-0.1,0.5,0.2,1,0.7,1.2l0.7,0.2l-1.2,0.7c-0.5,0.3-0.6,0.9-0.4,1.3c0.2,0.3,0.5,0.5,0.8,0.5c0.2,0,0.3,0,0.5-0.1l1.2-0.7l-0.2,0.7c-0.1,0.5,0.2,1,0.7,1.2c0.1,0,0.2,0,0.2,0c0.4,0,0.8-0.3,0.9-0.7l0.6-2.5l1.1-0.6L26.5,52c-0.1,0.5,0.2,1,0.7,1.2c0.1,0,0.2,0,0.2,0c0.4,0,0.8-0.3,0.9-0.7l0.9-3.7l1.8-1.1c0.8,0.8,1.8,1.4,2.9,1.5v2.3l-2.7,2.7c-0.4,0.4-0.4,1,0,1.4c0.4,0.4,1,0.4,1.4,0l1.3-1.3v1.1l-1.9,1.9c-0.4,0.4-0.4,1,0,1.4c0.2,0.2,0.4,0.3,0.7,0.3c0.3,0,0.5-0.1,0.7-0.3l0.5-0.5v1.4c0,0.5,0.4,1,1,1c0.5,0,1-0.4,1-1v-1.4l0.5,0.5c0.4,0.4,1,0.4,1.4,0c0.4-0.4,0.4-1,0-1.4L36,55.5v-1.3l1.4,1.3c0.2,0.2,0.4,0.3,0.7,0.3s0.5-0.1,0.7-0.3c0.4-0.4,0.4-1,0-1.4L36,51.5v-2.2c1.1-0.2,2.2-0.8,2.9-1.5l1.8,1.1l1,3.6c0.1,0.4,0.5,0.7,0.9,0.7c0.1,0,0.2,0,0.3,0c0.5-0.1,0.8-0.7,0.7-1.2l-0.5-1.8l1,0.6l0.7,2.5c0.1,0.4,0.5,0.7,0.9,0.7c0.1,0,0.2,0,0.3,0c0.5-0.1,0.8-0.7,0.7-1.2l-0.2-0.6l1.2,0.7c0.2,0.1,0.3,0.1,0.5,0.1c0.3,0,0.7-0.2,0.8-0.5c0.3-0.5,0.1-1.1-0.4-1.3l-1.2-0.7l0.7-0.2c0.5-0.1,0.8-0.7,0.7-1.2c-0.1-0.5-0.7-0.8-1.2-0.7l-2.5,0.7l-1.1-0.6l1.9-0.5c0.5-0.1,0.8-0.7,0.7-1.2c-0.1-0.5-0.7-0.8-1.2-0.7l-3.7,1l-1.8-1c0.1-0.2,0.2-0.5,0.2-0.8l12.1,0c3.3,0,6.2-1.3,8.4-3.6c2.1-2.3,3.3-5.3,3.3-8.6C64,26.9,59.4,21.8,53.4,21.1z M38.4,44.4C38.4,44.4,38.4,44.4,38.4,44.4c0,1.7-1.5,3.1-3.3,3.1c-1.8,0-3.3-1.4-3.3-3.1c0-1.7,1.5-3.1,3.3-3.1C36.9,41.3,38.4,42.7,38.4,44.4C38.4,44.4,38.4,44.4,38.4,44.4z M59.3,40.4c-1.8,1.9-4.3,3-7,3l-12.1,0c0-0.3-0.1-0.5-0.2-0.7l1.8-1l3.6,1c0.1,0,0.2,0,0.3,0c0.4,0,0.8-0.3,0.9-0.7c0.1-0.5-0.2-1-0.7-1.2l-1.8-0.5l1-0.6l2.5,0.7c0.1,0,0.2,0,0.3,0c0.4,0,0.8-0.3,0.9-0.7c0.1-0.5-0.2-1-0.7-1.2l-0.7-0.2l1.2-0.7c0.5-0.3,0.6-0.9,0.4-1.3c-0.3-0.5-0.9-0.6-1.3-0.3l-1.2,0.7l0.2-0.7c0.1-0.5-0.2-1.1-0.7-1.2c-0.5-0.1-1.1,0.2-1.2,0.7L44.2,38l-1.1,0.6l0.5-1.9c0.1-0.5-0.2-1.1-0.7-1.2c-0.5-0.1-1,0.2-1.2,0.7L40.8,40L38.9,41c-0.8-0.8-1.8-1.3-2.9-1.5v-2.3l2.7-2.6c0.4-0.4,0.4-1,0-1.4c-0.4-0.4-1-0.4-1.4,0L36,34.5v-1.1l1.8-1.9c0.4-0.4,0.4-1,0-1.4c-0.4-0.4-1-0.4-1.4,0L36,30.6v-1.4c0-0.5-0.4-1-1-1c-0.5,0-1,0.4-1,1v1.4l-0.5-0.5c-0.4-0.4-1-0.4-1.4,0c-0.4,0.4-0.4,1,0,1.4l1.8,1.8v1.3l-1.4-1.3c-0.4-0.4-1-0.4-1.4,0c-0.4,0.4-0.4,1,0,1.4l2.7,2.7v2.2c-1.1,0.2-2.2,0.8-2.9,1.5L29.4,40l-1-3.6c-0.1-0.5-0.7-0.8-1.2-0.7c-0.5,0.1-0.8,0.7-0.7,1.2l0.5,1.8L26,38l-0.7-2.5c-0.1-0.5-0.7-0.8-1.2-0.7c-0.5,0.1-0.8,0.7-0.7,1.2l0.2,0.7l-1.2-0.7c-0.5-0.3-1.1-0.1-1.3,0.3c-0.3,0.5-0.1,1.1,0.4,1.3l1.2,0.7L22,38.5c-0.5,0.1-0.8,0.7-0.7,1.2c0.1,0.4,0.5,0.7,0.9,0.7c0.1,0,0.2,0,0.3,0l2.5-0.7l1.1,0.6l-1.9,0.5c-0.5,0.1-0.8,0.7-0.7,1.2c0.1,0.4,0.5,0.7,0.9,0.7c0.1,0,0.2,0,0.3,0l3.7-1l1.8,1c-0.1,0.2-0.2,0.5-0.2,0.7l-2.5,0l-15.2,0c-5.6,0-10.3-4.6-10.3-10.2c0-5.5,4.5-10.1,10-10.3c0.3,0,0.5-0.1,0.7-0.3c0.2-0.2,0.3-0.5,0.2-0.8c-0.1-0.5-0.1-1-0.1-1.6c0-5.4,4.4-9.7,9.7-9.7c1.5,0,2.9,0.3,4.2,1c0.4,0.2,0.9,0.1,1.2-0.3c2.4-3.5,6.4-5.7,10.8-5.7c7.2,0,13,5.8,13,13c0,1.1-0.1,2.2-0.4,3.3c-0.1,0.3,0,0.6,0.2,0.8c0.2,0.2,0.4,0.4,0.7,0.4c5.5,0.2,9.9,4.7,9.9,10.2C62.1,35.9,61.1,38.5,59.3,40.4z"></path>
  <path fill="#ffdc7c" d="M38.4,44.3C38.4,44.4,38.4,44.4,38.4,44.3C38.4,44.4,38.4,44.4,38.4,44.3c0,1.7-1.5,3.1-3.3,3.1c-1.8,0-3.3-1.4-3.3-3.1c0-1.7,1.5-3.1,3.3-3.1C36.9,41.3,38.4,42.7,38.4,44.3z"></path>
  <path fill="#ecc25d" d="M35.1,41.3c-1.8,0-3.3,1.4-3.3,3.1c0,1.7,1.5,3.1,3.3,3.1c1.8,0,3.3-1.4,3.3-3c0,0,0,0,0,0c0,0,0,0,0,0C38.4,42.7,36.9,41.3,35.1,41.3z M35.1,46.4c-1.3,0-2.3-0.9-2.3-2.1s1-2.1,2.3-2.1c1.3,0,2.3,0.9,2.3,2C37.4,45.5,36.3,46.4,35.1,46.4z"></path>
  <path fill="#a0d3f2" d="M62.1,33.1c0,2.8-1,5.4-2.8,7.3c-1.8,1.9-4.3,3-7,3l-12.1,0c0-0.3-0.1-0.5-0.2-0.7l1.8-1l3.6,1c0.1,0,0.2,0,0.3,0c0.4,0,0.8-0.3,0.9-0.7c0.1-0.5-0.2-1-0.7-1.2l-1.8-0.5l1-0.6l2.5,0.7c0.1,0,0.2,0,0.3,0c0.4,0,0.8-0.3,0.9-0.7c0.1-0.5-0.2-1-0.7-1.2l-0.7-0.2l1.2-0.7c0.5-0.3,0.6-0.9,0.4-1.3c-0.3-0.5-0.9-0.6-1.3-0.3l-1.2,0.7l0.2-0.7c0.1-0.5-0.2-1.1-0.7-1.2c-0.5-0.1-1.1,0.2-1.2,0.7L44.2,38l-1.1,0.6l0.5-1.9c0.1-0.5-0.2-1.1-0.7-1.2c-0.5-0.1-1,0.2-1.2,0.7L40.8,40L38.9,41c-0.8-0.8-1.8-1.3-2.9-1.5v-2.3l2.7-2.6c0.4-0.4,0.4-1,0-1.4c-0.4-0.4-1-0.4-1.4,0L36,34.5v-1.1l1.8-1.9c0.4-0.4,0.4-1,0-1.4c-0.4-0.4-1-0.4-1.4,0L36,30.6v-1.4c0-0.5-0.4-1-1-1c-0.5,0-1,0.4-1,1v1.4l-0.5-0.5c-0.4-0.4-1-0.4-1.4,0c-0.4,0.4-0.4,1,0,1.4l1.8,1.8v1.3l-1.4-1.3c-0.4-0.4-1-0.4-1.4,0c-0.4,0.4-0.4,1,0,1.4l2.7,2.7v2.2c-1.1,0.2-2.2,0.8-2.9,1.5L29.4,40l-1-3.6c-0.1-0.5-0.7-0.8-1.2-0.7c-0.5,0.1-0.8,0.7-0.7,1.2l0.5,1.8L26,38l-0.7-2.5c-0.1-0.5-0.7-0.8-1.2-0.7c-0.5,0.1-0.8,0.7-0.7,1.2l0.2,0.7l-1.2-0.7c-0.5-0.3-1.1-0.1-1.3,0.3c-0.3,0.5-0.1,1.1,0.4,1.3l1.2,0.7L22,38.5c-0.5,0.1-0.8,0.7-0.7,1.2c0.1,0.4,0.5,0.7,0.9,0.7c0.1,0,0.2,0,0.3,0l2.5-0.7l1.1,0.6l-1.9,0.5c-0.5,0.1-0.8,0.7-0.7,1.2c0.1,0.4,0.5,0.7,0.9,0.7c0.1,0,0.2,0,0.3,0l3.7-1l1.8,1c-0.1,0.2-0.2,0.5-0.2,0.7l-2.5,0l-15.2,0c-5.6,0-10.3-4.6-10.3-10.2c0-5.5,4.5-10.1,10-10.3c0.3,0,0.5-0.1,0.7-0.3c0.2-0.2,0.3-0.5,0.2-0.8c-0.1-0.5-0.1-1-0.1-1.6c0-5.4,4.4-9.7,9.7-9.7c1.5,0,2.9,0.3,4.2,1c0.4,0.2,0.9,0.1,1.2-0.3c2.4-3.5,6.4-5.7,10.8-5.7c7.2,0,13,5.8,13,13c0,1.1-0.1,2.2-0.4,3.3c-0.1,0.3,0,0.6,0.2,0.8c0.2,0.2,0.4,0.4,0.7,0.4C57.7,23.1,62.1,27.6,62.1,33.1z"></path>
  <path fill="#8cc0d6" d="M62.1,33.1c0,2.8-1,5.4-2.8,7.3c-1.8,1.9-4.3,3-7,3l-12.1,0c0-0.3-0.1-0.5-0.2-0.7l1.3-0.8h1.4l2.6,0.7c0.1,0,0.2,0,0.3,0c0.4,0,0.8-0.3,0.9-0.7c0,0,0,0,0,0h5.7c2.3,0,4.4-0.9,5.9-2.5c1.5-1.6,2.4-3.8,2.4-6.3c0-4.7-3.7-8.6-8.5-8.7c-0.8,0-1.5-0.4-1.9-1c-0.5-0.6-0.6-1.4-0.4-2.1c0.2-0.9,0.4-1.9,0.4-2.9c0-6.4-5.2-11.5-11.5-11.5c-3.8,0-7.4,1.9-9.5,5c-0.5,0.7-1.2,1.1-2,1.1c-0.4,0-0.7-0.1-1.1-0.2c-1.1-0.5-2.3-0.8-3.6-0.8c-4.5,0-8.2,3.7-8.2,8.2c0,0.4,0,0.9,0.1,1.3c0.1,0.7-0.1,1.5-0.5,2c-0.5,0.6-1.2,0.9-1.9,0.9c-4.7,0.1-8.5,4-8.5,8.8c0,4.8,3.9,8.7,8.8,8.7l11.3,0c0,0,0,0.1,0,0.1c0.1,0.4,0.5,0.7,0.9,0.7c0.1,0,0.2,0,0.3,0l2.8-0.8h1.2l1.4,0.8c-0.1,0.2-0.2,0.5-0.2,0.7l-2.5,0l-15.2,0c-5.6,0-10.3-4.6-10.3-10.2c0-5.5,4.5-10.1,10-10.3c0.3,0,0.5-0.1,0.7-0.3c0.2-0.2,0.3-0.5,0.2-0.8c-0.1-0.5-0.1-1-0.1-1.6c0-5.4,4.4-9.7,9.7-9.7c1.5,0,2.9,0.3,4.2,1c0.4,0.2,0.9,0.1,1.2-0.3c2.4-3.5,6.4-5.7,10.8-5.7c7.2,0,13,5.8,13,13c0,1.1-0.1,2.2-0.4,3.3c-0.1,0.3,0,0.6,0.2,0.8c0.2,0.2,0.4,0.4,0.7,0.4C57.7,23.1,62.1,27.6,62.1,33.1z"></path>
  <polygon fill="#a0d3f2" points="28.4 41.6 28.8 41.9 27.6 41.9"></polygon>
  <polygon fill="#a0d3f2" points="41.8 41.7 42.7 41.9 41.3 41.9 41.7 41.7 41.7 41.6"></polygon>
</svg>
